<svg xmlns="http://www.w3.org/2000/svg" viewBox="0 0 300 120"><path d="M298 22.4H186.1c-3.8-.3-7.5-.6-11.4-.7-23.7-.7-42.1 13-63.9 21.3 16.9.7 33 .7 47.6-.5 18.1-3.5 33.2-9.7 46.3-17.7h91.9l1.4-2.4zM180 89.3H84.2c.9-1.5 1.5-3.1 1.6-4.7h100.4l1.2-.1c.4 7 8.5 12.7 18.4 12.7 1.3 0 2.6-.1 3.9-.3h45.5l1.4-2.4H217c1.5-.8 2.7-1.7 3.8-2.8h37.4l1.4-2.4h-36.8c.5-.9 1-1.8 1.2-2.8h37.2l1.4-2.4h-38.2v-.2c0-.9-.1-1.7-.4-2.6h40l1.4-2.4h-32.3c2.3-.8 4.5-1.7 6.6-2.8H267l1.4-2.4h-24.1c1.6-.9 3.2-1.9 4.7-2.8h21l1.4-2.4H253l.2-.1h-63.4c-5.2 0-7.8 8.1-8.6 13.6H98.4c-3.8-5.8-10.2-9.5-19.4-9.6l-77-.1C6.4 77.7 18.9 82 48.3 84h.6c0 7.2 8.3 13.1 18.5 13.1 1.3 0 2.6-.1 3.9-.3h116.1v-2.4H78.5c1.5-.8 2.8-1.8 3.9-2.9v.1H180v-2.3zm79.4-25.7h14.8l-1.4 2.4h-88.3c-4.9 1.1-7.9 5.2-8.6 12.4h-73.4C98.1 70 90 67.1 79 67.1l-65.2-.5c3.2-1.4 8.3-2.4 11.7-3.1l215.7-.7c5.2-1.4 9.5-3.6 13.3-6.4 2.1-.1 3.5.7 4.4 2h18.5l-1.4 2.4h-16.6v2.8zm-22.8-5.9C167 59.8 99.3 59 29.1 59c21-3.5 37.9-7.4 62.7-9.3 16.3-1.2 36.2-.8 61.7-1.3 17.9-.3 37.3-13 48.9-18.6 2.6-1.3 4.5-2 6.2-2.2v-.1h.6c.6-.1 1.1 0 1.7 0H295l-1.4 2.4H218c.9.4 2 .8 3.1 1.2 1.2.5 2.5 1 3.7 1.5H292l-1.4 2.4h-61.3c1.5.9 3 1.8 4.5 2.8h55.1l-1.4 2.4h-50.3c1.3.9 2.5 1.8 3.8 2.8h44.9l-1.4 2.4H244c1.2.9 2.4 1.8 3.5 2.8h35.3l-1.4 2.4h-31l1.2.9c-.4.7-.9 1.3-1.4 1.9h29.6l-1.4 2.4h-31.6c-2.7 1.4-6.6 1.8-10.2 1.9z" fill="currentColor"/></svg>