<svg xmlns="http://www.w3.org/2000/svg" viewBox="0 0 300 120"><path d="M47.7 74.7c-2.1 0-3.8-1.7-3.8-3.8 0-2.1 1.7-3.8 3.8-3.8h38.5l22.9 39.6H122L68 14.5l-54.7 94.8h13.2c2.1 0 3.8 1.7 3.8 3.8 0 2.1-1.7 3.8-3.8 3.8H0L67.9-.7l67.3 115.1h-30.6L81.7 74.7h-34zM175 98.2c0 2.1-1.7 3.8-3.8 3.8s-3.8-1.7-3.8-3.8v-79h74.1c10.2 0 17.8 4.2 23.1 10 7.3 8 10.4 19.1 10.5 26.2v.7c0 6.3-2.1 15.5-7.2 23.2-5.2 7.9-13.5 14.3-25.7 14.6h-36.9v-52c0-2.1 1.7-3.8 3.8-3.8 2.1 0 3.8 1.7 3.8 3.8v44.3h29c9.2-.2 15.5-5.1 19.4-11.1 4.1-6.3 5.9-13.8 5.9-19v-.5c-.1-5.7-2.6-14.7-8.5-21.1-4-4.4-9.7-7.5-17.5-7.5H175v71.2zm-20.2 18.7V19.3h-53L94.6 7.6h151.7c12.9 0 23.5 5.1 31.2 13.1 8.8 9 13.9 21.5 14.7 34.2.1 1 .1 2.2.1 3.4 0 11.9-3.7 23.7-10.7 32.7-6.9 8.9-17 15-29.9 15.8-.8 0-1.8.1-2.8.1h-41.4c-2.1 0-3.8 1.7-3.8 3.8 0 2.1 1.7 3.8 3.8 3.8h41.4c1 0 2.1 0 3.3-.1 15.3-.9 27.4-8.2 35.5-18.7 8.1-10.4 12.4-23.9 12.4-37.4 0-1.2 0-2.5-.1-3.9-.9-14.5-6.8-28.8-16.9-39.1C274 6 261.5-.1 246.4-.1H81L97.5 27h49.6v89.9c0 2.1 1.7 3.8 3.8 3.8 2.1 0 3.9-1.7 3.9-3.8z" fill-rule="evenodd" clip-rule="evenodd" fill="currentColor"/></svg>