<svg xmlns="http://www.w3.org/2000/svg" viewBox="0 0 206 80"><path d="M63.8 50.4h-1.5c-.5.1-1 .3-1.8.6-3.3 1.6-8.9 5.2-14 5.3-7.3.1-13 0-17.7.4-7.1.5-12 1.6-18 2.7 19.6 0 38.5.2 57.9-.3l-4.9-8.7zm5.9 10.2l-59.8.1c-1 .2-2.4.5-3.3.9l18.7.1c3.2 0 5.5.8 6.8 3.2h21c.2-2 1.1-3.2 2.5-3.5h14.7l-.6-.8z"/><path d="M54.2 68.1H26.7c.3-.4.4-.9.4-1.4h29.1c.1 2 2.4 3.6 5.3 3.6.4 0 .8 0 1.1-.1h12.6l-.4-.7h-10c.4-.2.8-.5 1.1-.8h8.6l-.5-.6h-7.6c.2-.3.3-.5.4-.8h6.8l-.4-.7h-6.3v-.1c0-.3 0-.5-.1-.7h6l-.4-.7h-2.9c.6-.2 1.3-.5 1.9-.8h.6l-1.3-2.2H56.9c-1.5 0-2.2 2.3-2.5 3.9H30.8c-1.1-1.7-2.9-2.7-5.6-2.7h-22c1.3 1.6 4.9 2.8 13.3 3.4h.2c0 2.1 2.4 3.8 5.3 3.8.4 0 .8 0 1.1-.1h33.3v-.7H25.1c.4-.2.8-.5 1.1-.8h28v-.8zM63 49h-7.1c-1.1-.1-2.2-.2-3.3-.2-6.8-.2-12.1 3.7-18.3 6.1 4.9.2 9.5.2 13.6-.2 5.2-1 9.5-2.8 13.3-5.1h2.1L63 49z"/><path d="M47.6 47.1c-1.3 0-2.4-1.1-2.4-2.4 0-1.3 1.1-2.4 2.4-2.4h19l15.9 27.5h8.1L56.5 11.5l-24.9 43-3.3 1.3H28c-1 .1-2 .2-2.9.3L56.5 1.9 99 74.6H79.7L63.8 47.1H47.6zM22 71.2h-.1c-1.8 0-3.4-.6-4.6-1.5l-3.7 6.4h16.7c1.3 0 2.4-1.1 2.4-2.4 0-1.3-1.1-2.4-2.4-2.4H22v-.1zm102.2-6.8c0 1.3-1.1 2.4-2.4 2.4-1.3 0-2.4-1.1-2.4-2.4V14.5h46.8c6.5 0 11.2 2.7 14.6 6.3 4.6 5 6.6 12.1 6.7 16.5v.4c0 4-1.3 9.8-4.5 14.6-3.3 5-8.5 9-16.2 9.2h-23.3V28.8c0-1.3 1.1-2.4 2.4-2.4 1.3 0 2.4 1.1 2.4 2.4v28h18.4c5.8-.1 9.8-3.2 12.3-7 2.6-4 3.7-8.7 3.7-12v-.3c-.1-3.6-1.6-9.3-5.4-13.4-2.5-2.8-6.1-4.7-11.1-4.7h-42v45zm-12.8 11.8V14.5H77.9l-4.5-7.4h95.9c8.1 0 14.8 3.2 19.7 8.3 5.5 5.7 8.8 13.6 9.3 21.6 0 .7.1 1.4.1 2.1 0 7.5-2.4 15-6.8 20.7-4.4 5.6-10.8 9.5-18.9 10h-28c-1.3 0-2.4 1.1-2.4 2.4 0 1.3 1.1 2.4 2.4 2.4h26.2c.6 0 1.3 0 2.1-.1 9.7-.6 17.3-5.2 22.5-11.8 5.1-6.6 7.8-15.1 7.8-23.7 0-.8 0-1.6-.1-2.4-.6-9.2-4.3-18.2-10.7-24.7-5.8-5.9-13.6-9.7-23.2-9.7H64.7l10.5 17.1h31.3v56.8c0 1.3 1.1 2.4 2.4 2.4 1.4.1 2.5-1 2.5-2.3z"/></svg>