<?xml version="1.0" encoding="UTF-8"?><svg id="Layer_1" xmlns="http://www.w3.org/2000/svg" viewBox="0 0 829.45 266.92"><defs><style>.cls-1{stroke-width:0px;}</style></defs><path class="cls-1" d="m287.67,266.92c-45.41-25.42-90.54-50.69-135.68-75.95-2.68-1.5-5.42-4.05-8.13-4.04-2.71,0-5.43,2.56-8.12,4.06-43.88,24.44-87.76,48.89-131.63,73.34-1.14.63-2.29,1.23-4.12,2.21,3.29-6.16,6.22-11.64,9.16-17.11,16.28-30.3,32.56-60.61,48.85-90.91C85.96,106.49,113.92,54.47,141.88,2.45c1.62-3.01,1.64-2.99,4.6-1.34,46.11,25.74,92.24,51.46,138.32,77.26,1.99,1.11,3.44,1.11,5.43,0C336.47,52.51,382.75,26.73,429.02.94c.63-.35,1.29-.65,2.34-.65-47.86,88.82-95.73,177.63-143.69,266.64Zm-20.55-20.28c.15-.13.29-.27.44-.4-38.54-71.7-77.09-143.39-115.63-215.09-.24.09-.48.17-.73.26-.06.71-.17,1.43-.17,2.14,0,48.66.03,97.32,0,145.98,0,1.93.73,3.01,2.38,3.92,37.2,20.69,74.38,41.42,111.57,62.13.69.38,1.42.7,2.13,1.05Zm-247.99-.18c.19.18.38.35.57.53,1.74-.95,3.48-1.88,5.21-2.85,36.18-20.27,72.36-40.54,108.56-60.79,1.41-.79,2.24-1.59,2.24-3.43-.06-48.81-.05-97.63-.06-146.44,0-.56-.16-1.13-.35-2.41C96.32,103.33,57.73,174.9,19.13,246.47Z"/><path class="cls-1" d="m465.97,87.48c4.38,3.76,6.56,9.13,6.56,16.11h-15.56c0-2.95-.77-5.28-2.32-7.01-1.55-1.72-3.75-2.58-6.6-2.58-3.29,0-5.72,1.03-7.26,3.1-1.55,2.06-2.32,4.94-2.32,8.63v4.72c0,3.64.77,6.5,2.32,8.59,1.55,2.09,3.92,3.13,7.12,3.13s5.53-.81,7.15-2.43c1.62-1.62,2.43-3.91,2.43-6.86h15.04c0,6.93-2.13,12.24-6.38,15.93-4.25,3.69-10.26,5.53-18.03,5.53-8.65,0-15.2-2.21-19.65-6.64-4.45-4.42-6.67-10.96-6.67-19.62s2.22-15.19,6.67-19.62c4.45-4.42,11-6.64,19.65-6.64,7.52,0,13.47,1.88,17.85,5.64Z"/><path class="cls-1" d="m526.81,88.55c4.77,4.47,7.15,10.99,7.15,19.54s-2.38,15.07-7.15,19.54c-4.77,4.47-11.53,6.71-20.28,6.71s-15.5-2.22-20.24-6.67c-4.74-4.45-7.12-10.98-7.12-19.58s2.37-15.13,7.12-19.58c4.74-4.45,11.49-6.67,20.24-6.67s15.51,2.24,20.28,6.71Zm-28.24,8.63c-1.82,2.11-2.73,4.97-2.73,8.55v4.72c0,3.59.91,6.44,2.73,8.55,1.82,2.11,4.47,3.17,7.96,3.17s6.16-1.06,8-3.17c1.84-2.11,2.77-4.97,2.77-8.55v-4.72c0-3.59-.92-6.44-2.77-8.55-1.84-2.11-4.51-3.17-8-3.17s-6.15,1.06-7.96,3.17Z"/><path class="cls-1" d="m586.32,133.46v-18.29c0-2.26.09-4.58.26-6.97.17-2.38.36-4.39.55-6.01.2-1.62.32-2.65.37-3.1h-.3l-9.37,34.36h-12.76l-9.44-34.29h-.29c.05.44.18,1.46.41,3.06.22,1.6.43,3.59.63,5.97.2,2.39.29,4.71.29,6.97v18.29h-14.97v-50.74h23.01l7.67,29.28h.29l7.6-29.28h22.2v50.74h-16.15Z"/><path class="cls-1" d="m649.22,84.9c2.46,1.45,4.38,3.44,5.75,5.97,1.38,2.53,2.06,5.37,2.06,8.52v.96c0,3.15-.69,6-2.06,8.55-1.38,2.56-3.29,4.56-5.75,6.01-2.46,1.45-5.26,2.18-8.41,2.18h-12.17v16.37h-16.3v-50.74h28.46c3.15,0,5.95.73,8.41,2.18Zm-20.58,20.32h6.71c1.72,0,3.01-.44,3.87-1.33.86-.88,1.29-2.09,1.29-3.61v-.59c0-1.57-.43-2.79-1.29-3.65-.86-.86-2.15-1.29-3.87-1.29h-6.71v10.47Z"/><path class="cls-1" d="m693.32,133.46l-2.14-7.15h-17.77l-2.14,7.15h-16.67l18.51-50.74h18.95l18.51,50.74h-17.26Zm-16.52-18.51h10.99l-5.31-18.07h-.29l-5.38,18.07Z"/><path class="cls-1" d="m752.97,133.46l-21.31-24.63v24.63h-14.97v-50.74h14.23l21.31,25v-25h14.97v50.74h-14.23Z"/><path class="cls-1" d="m809.61,133.46h-16.3v-19.69l-20.13-31.05h18.73l9.73,16.89h.29l9.73-16.89h17.77l-19.84,31.05v19.69Z"/><path class="cls-1" d="m460.66,167.51v45.95h-19.83v-45.95h-20.28v-15.79h60.31v15.79h-20.19Z"/><path class="cls-1" d="m536.31,213.46l-7.99-37.6h-.36l-7.99,37.6h-21.81l-14.45-61.74h20.64l7.09,35h.36l7-35h19.56l7.45,35h.36l6.64-35h19.74l-14.45,61.74h-21.81Z"/><path class="cls-1" d="m633.5,158.81c5.8,5.44,8.71,13.37,8.71,23.78s-2.9,18.34-8.71,23.78c-5.8,5.44-14.03,8.17-24.68,8.17s-18.86-2.71-24.63-8.12c-5.77-5.41-8.66-13.36-8.66-23.83s2.89-18.41,8.66-23.83c5.77-5.41,13.99-8.12,24.63-8.12s18.88,2.72,24.68,8.17Zm-34.37,10.5c-2.21,2.57-3.32,6.04-3.32,10.41v5.74c0,4.37,1.11,7.84,3.32,10.41,2.21,2.57,5.44,3.86,9.69,3.86s7.49-1.29,9.74-3.86c2.24-2.57,3.37-6.04,3.37-10.41v-5.74c0-4.37-1.12-7.84-3.37-10.41-2.24-2.57-5.49-3.86-9.74-3.86s-7.48,1.29-9.69,3.86Z"/></svg>