<?xml version="1.0" encoding="UTF-8"?><svg id="Layer_1" xmlns="http://www.w3.org/2000/svg" viewBox="0 0 485.16 495.43"><defs><style>.cls-1{stroke-width:0px;}</style></defs><path class="cls-1" d="m244.88,0c103.06.06,186.8,83.85,186.93,187.03.13,103.08-84.07,187.26-187.11,187.06-103.33-.21-187.17-84.15-186.98-187.23C57.91,83.78,141.88-.06,244.88,0ZM68.46,187.04c-.04,97.23,78.96,176.34,176.18,176.43,97.18.09,176.44-78.98,176.55-176.12.11-97.36-78.86-176.51-176.24-176.62-97.37-.11-176.46,78.89-176.49,176.31Z"/><path class="cls-1" d="m108.56,462.34c-7.94,0-15.43-.03-22.92.06-.5,0-1.4.93-1.41,1.43-.07,6.83-.17,13.67.07,20.49.12,3.61,1.57,4.67,5.06,4.75q3.94.09,3.33,4.55h-31.21c-.05-.77-.06-1.5-.17-2.22-.28-1.92.6-2.39,2.42-2.37,5.05.04,6.19-1.04,6.22-6.12.07-14.66.07-29.33,0-43.99-.02-4.79-1.33-5.9-6.23-5.99-.66-.01-1.32-.07-2.18-.12v-4.27h31.2v4.39c-.96,0-1.77,0-2.59,0-4.41.06-5.86,1.36-5.96,5.8-.12,5.08-.04,10.16-.03,15.25,0,.89.08,1.79.13,2.82h24.27c0-1.85,0-3.65,0-5.45,0-3.92.03-7.83-.01-11.75-.06-5.42-1.2-6.55-6.59-6.69-.65-.02-1.29-.12-2.04-.19v-4.17h30.95c1.12,3.78.82,4.23-2.87,4.37-3.53.13-4.84,1.22-5.06,4.8-.22,3.74-.16,7.49-.16,11.24-.02,10.83-.01,21.66,0,32.5,0,1.16.03,2.34.17,3.49.37,3.01,1.51,4,4.58,4.11,4.22.15,4.3.26,3.49,4.58h-31.05v-4.58c1.25,0,2.54.04,3.83,0,2.93-.1,4.24-1.04,4.46-3.93.3-3.89.24-7.82.29-11.73.04-3.56,0-7.13,0-11.07Z"/><path class="cls-1" d="m196.55,465.3c0,6.84-.09,13.32.04,19.8.05,2.64,1.51,3.83,4.19,3.95,1.31.06,2.63.01,4.12.01v4.56h-31.13v-4.56c1.34,0,2.57.04,3.79,0,2.95-.11,4.24-1.28,4.56-4.19.12-1.07.06-2.16.07-3.25,0-13.83,0-27.66,0-41.49,0-6.17-.84-7.03-6.99-7.25-.4-.01-.81-.08-1.36-.13-.07-.7-.17-1.34-.19-1.97-.02-.66.05-1.32.09-2.15.68-.08,1.32-.21,1.95-.21,10.16,0,20.33-.09,30.49.1,3.21.06,6.46.62,9.59,1.38,6.51,1.58,11.13,5.39,12.15,12.33,1.07,7.34-1.18,13.5-7.52,17.8-1.43.97-2.99,1.76-4.67,2.74,2.37,4.1,4.68,8.13,7.03,12.14,1.81,3.09,3.58,6.2,5.54,9.19,1.77,2.7,4.02,4.91,7.67,5.1v4.59c-5.4.01-10.78.3-15.91-1.88-3.07-1.3-4.99-3.79-6.53-6.64-3.05-5.64-6.22-11.21-9.07-16.94-1.16-2.33-2.52-3.5-5.14-3.06-.8.13-1.64.02-2.77.02Zm.15-31.84v26.71c5.32-.36,11.34,1.4,14.32-4.43,3.05-5.95,3.31-12.61-.27-18.41-3.17-5.14-8.92-3.6-14.06-3.87Z"/><path class="cls-1" d="m238.81,493.37v-4.3c1.36,0,2.67-.03,3.97,0,2.54.06,3.84-1.35,4.26-3.68.19-1.05.16-2.16.16-3.23,0-14.07,0-28.15,0-42.22,0-6.02-.86-6.9-6.88-7.05-.41,0-.83-.06-1.45-.11v-4.05c.18-.1.33-.24.47-.24,12.4.14,24.84-.36,37.17.62,14.32,1.14,23.73,11.95,24.58,26.31.38,6.37.14,12.66-2.05,18.72-4.1,11.39-12.37,18.18-24.24,19.02-11.9.85-23.91.19-36.01.19Zm22.93-59.34v54.11c11.72,1.56,19.29-3.24,22.47-14.31,2.46-8.56,2.55-17.25.45-25.89-1.79-7.37-6.04-12.62-13.91-13.83-2.9-.45-5.93-.07-9.01-.07Z"/><path class="cls-1" d="m428.08,427.47c18.33-.11,30.2,11.41,30.87,30.29.17,4.69-.11,9.55-1.16,14.11-3.86,16.66-16.72,23.61-32,22.72-2.96-.17-5.99-.62-8.82-1.48-10.29-3.11-16.15-10.44-18.56-20.64-1.9-8.06-1.86-16.18.29-24.21,3.33-12.43,13.05-20.21,25.89-20.77,1.16-.05,2.33,0,3.5,0Zm16.42,33.82c-.27-.04-.54-.07-.82-.11,0-2.25.14-4.5-.03-6.74-.37-4.99-1.07-9.93-3.52-14.42-1.98-3.63-4.9-6.06-9.08-6.7-8.03-1.24-13.97,2.09-16.31,10.05-1.46,4.96-2.08,10.26-2.36,15.45-.38,7.06-.02,14.16,2.68,20.88,1.72,4.29,4.48,7.59,9.18,8.78,8.04,2.04,14.82-1.5,17.24-9.84,1.63-5.6,2.05-11.55,3.01-17.35Z"/><path class="cls-1" d="m0,428.55h57.2v17.14h-5.34c-.36-2.3-.63-4.67-1.12-7-.63-2.94-2.36-4.59-5.3-4.79-3.06-.2-6.14-.05-9.45-.05-.05.99-.14,1.87-.14,2.76,0,14.99,0,29.99,0,44.98,0,1,.03,2,.13,2.99.31,3.28,1.5,4.38,4.77,4.48q4.14.13,3.46,4.59H13.04c-.05-.82-.09-1.69-.17-2.57-.14-1.48.43-2.18,1.99-2.03.91.08,1.83-.01,2.75-.04,1.95-.05,3.09-1.18,3.52-2.96.28-1.12.4-2.31.4-3.46.03-15.49.02-30.99.01-46.48,0-.65-.09-1.31-.15-2.07-3.55,0-7.02-.24-10.44.08-2.43.23-3.94,2.06-4.38,4.52-.4,2.29-.68,4.6-1.04,7.06H0v-17.17Z"/><path class="cls-1" d="m376.9,446.27c-.11-1.37-.13-1.95-.2-2.52-.51-4.34-1.87-8.33-6.34-9.95-4.72-1.71-9.48-1.02-12.95,2.65-2.19,2.31-3.91,5.47-4.75,8.55-2.48,9.12-2.41,18.46-.76,27.73,1.17,6.6,4.15,12.15,11.15,14,7.59,2.01,14.72.96,20.69-4.67.96-.9,1.82-1.91,3.39-3.58.31,2.26.88,3.92.68,5.47-.49,3.67-2.93,6.06-6.07,7.75-19.22,10.33-42.95-1.91-45.59-23.44-.95-7.81-.73-15.5,2.23-22.86,4.63-11.53,13.7-16.97,25.73-17.86,5.5-.4,11.04-.23,16.24,1.9,2.03.83,4.11,1.99,5.63,3.52,3.59,3.63,2.62,9.07-1.95,11.26-2.1,1.01-4.52,1.33-7.12,2.05Z"/><path class="cls-1" d="m136.78,493.67v-4.6c1.36,0,2.65.04,3.94,0,2.89-.11,4.19-1.36,4.47-4.28.07-.74.06-1.5.06-2.25,0-14.33.01-28.65,0-42.98,0-5.54-.97-6.48-6.54-6.63-.57-.01-1.13-.09-1.84-.15v-4.18h31.07v4.36c-1.27,0-2.49-.03-3.71,0-2.52.07-4.05,1.34-4.4,3.87-.14.98-.21,1.99-.21,2.98-.01,14.16-.01,28.32,0,42.48,0,.99.05,2,.2,2.98.39,2.48,1.77,3.87,4.4,3.79,1.23-.04,2.46,0,3.81,0v4.6h-31.25Z"/><path class="cls-1" d="m485.16,487.2c.02,4.77-2.37,7.18-7.18,7.23-5.02.05-7.58-2.34-7.61-7.1-.03-4.73,2.63-7.32,7.49-7.3,4.79.03,7.28,2.48,7.31,7.17Z"/><path class="cls-1" d="m120.66,71.28c3.61-3.81,7.05-8.02,11.07-11.59,24.87-22.04,53.74-35.66,86.62-40.81,76.32-11.95,148.09,30.88,179.21,96.74,12.16,25.73,17.22,52.83,15.62,81.25-1.72,30.69-10.08,59.28-26.66,85.26-17,26.64-40.01,46.43-68.97,59.11-25.83,11.31-59.3,4.74-77.45-15.36-10.89-12.06-16.89-26.6-19.37-42.58-6.6-42.49,23.28-80.37,55.83-91.19,10.69-3.56,21.64-5.13,32.91-4.85,15.31.38,30.04,3.43,44.29,8.96.37.14.79.15,1.18.23,4.06-24.63-3.35-48.68-28.25-63.07-9.74-5.63-20.28-9.15-31.08-12.05-1.6-.43-3.21-.88-4.76-1.47-3.09-1.17-4.39-3.63-3.29-6.77.64-1.84,1.7-3.62,2.9-5.16,2.88-3.71,2.63-7.05-1.11-10.19-11.61-9.74-24.74-16.83-38.97-21.92-16.01-5.73-32.57-8.78-49.49-10.05-26.84-2.02-53.39.09-79.72,5.51-.24.05-.49,0-.49,0Z"/><path class="cls-1" d="m257.14,130.31c-17.3,4.41-34.42,8.77-51.83,13.21-.24-5.82,2.3-10.08,5.57-14.31-25.26-.05-49.63,4.47-73.08,13.71-23.69,9.33-44.29,23.16-60.88,42.72-.2-.08-.41-.16-.61-.24,0-3.13-.32-6.3.06-9.38,1.04-8.49,2.28-16.96,3.69-25.4.26-1.53,1.45-3.16,2.67-4.22,16.14-13.92,34.63-23.49,55.07-29.35,15.74-4.51,31.83-6.25,48.15-5.47,24.83,1.19,48.32,7.76,70.79,18.23.07.03.1.12.4.49Z"/><path class="cls-1" d="m212.33,353.11c-2.63-.75-4.53-1.26-6.41-1.84-14.77-4.58-29.44-9.43-43.27-16.48-1.48-.76-2.85-1.76-4.37-2.4-3.67-1.55-4.91-4.27-5.04-8.17-.73-22.07,1.52-43.68,9.46-64.46,8.68-22.7,22.93-40.75,44.33-52.79.43-.24.88-.47,1.63-.47-.59.67-1.19,1.34-1.78,2.02-11.58,13.14-17.99,28.6-20.36,45.81-3.14,22.79,1.28,44.59,9.74,65.59,4.18,10.38,9.62,20.25,14.5,30.35.36.74.78,1.44,1.56,2.85Z"/><path class="cls-1" d="m109.23,287.63c-8.64-12.5-16.45-25.05-21.69-39.01-.36-.97.11-2.61.75-3.56,11.16-16.51,24.86-30.62,40.77-42.57,19.03-14.29,40.08-24.24,63.55-28.71,5.83-1.11,11.75-1.74,17.66-2.35-50.13,24.35-87.44,59.67-101.04,116.2Z"/></svg>