<?xml version="1.0" encoding="UTF-8"?><svg id="Layer_1" xmlns="http://www.w3.org/2000/svg" viewBox="0 0 715.05 361.33" width="715.05" height="361.33"><defs><style>.cls-1{stroke-width:0px;}</style></defs><path class="cls-1" d="m587.58,245.99c-.69.1-1.3.27-1.91.27-155.04.01-310.09.01-465.26.01-.12-.92-.27-1.52-.27-2.13-.01-13.19-.07-26.39.01-39.58.05-8.04,3.71-14.18,10.78-17.95,2.92-1.55,6.28-2.32,9.5-3.24,11.52-3.31,23.06-6.56,34.61-9.75,1.63-.45,2.51-1.25,3.14-2.84,2.28-5.71,4.68-11.38,7.17-17,.62-1.41.58-2.44-.17-3.76-6.57-11.53-13.03-23.11-19.59-34.65-2.34-4.11-3.98-8.35-3.58-13.19.34-4.18,1.54-8.07,4.4-11.17,4.01-4.34,8.22-8.5,12.39-12.69,9.99-10.02,20.04-19.97,30-30.02,4.22-4.25,9.19-6.53,15.2-6.5,3.36.02,6.45.92,9.38,2.55,12.45,6.89,24.92,13.73,37.34,20.68,1.45.81,2.51.73,3.97.07,5.45-2.47,10.97-4.8,16.5-7.11,1.28-.53,2.05-1.2,2.44-2.62,3.62-13.09,7.38-26.14,10.98-39.24,1.6-5.82,4.61-10.48,9.92-13.52C317.68.82,321.05,0,324.64,0c6.16.01,12.32,0,18.47,0,13.36,0,26.71-.03,40.07.01,7.95.03,13.98,3.55,17.91,10.44.98,1.71,1.59,3.66,2.15,5.57,3.78,12.96,7.51,25.94,11.21,38.93.45,1.59,1.26,2.49,2.85,3.14,5.55,2.26,11.03,4.67,16.49,7.13,1.31.59,2.27.58,3.54-.13,12.43-6.93,24.95-13.68,37.32-20.7,7.51-4.27,17.73-3.16,24.12,3.25,13.77,13.82,27.61,27.56,41.37,41.39,5.67,5.7,7.52,12.6,5.19,20.27-.98,3.23-2.88,6.22-4.55,9.21-5.83,10.47-11.72,20.92-17.66,31.33-.86,1.5-.81,2.65-.13,4.2,2.31,5.27,4.54,10.57,6.57,15.95.73,1.94,1.8,2.89,3.76,3.44,11.46,3.22,22.9,6.54,34.33,9.85,3.52,1.02,7.09,1.87,10.23,3.96,6.24,4.16,9.77,9.92,9.86,17.4.17,13.19.05,26.39.04,39.58,0,.54-.12,1.08-.2,1.75Zm-206.68-143.33c0,1.64,0,2.74,0,3.84,0,27.91,0,55.81,0,83.72,0,.88,0,1.76-.06,2.64-.04.79-.43,1.31-1.26,1.53-3.56.93-4.94-.07-4.95-3.67,0-.72,0-1.44,0-2.16,0-31.82,0-63.65,0-95.47,0-.8.03-1.6-.02-2.4-.11-1.52-.32-1.71-1.92-1.8-.64-.04-1.28-.01-1.92-.01-11.2,0-22.39,0-33.59,0-3.93,0-3.9-.45-3.9,3.92,0,32.14,0,64.29,0,96.43,0,.8.01,1.6,0,2.4-.07,2.5-.34,2.77-2.75,2.82-.24,0-.48,0-.72,0-2.47-.04-2.75-.29-2.77-2.77-.03-4.64-.01-9.28-.01-13.91,0-23.99,0-47.97,0-71.96,0-1-.05-1.99-.08-3.2-.98.24-1.59.36-2.18.54-14.01,4.28-26.29,11.54-37.02,21.47-11.72,10.85-20.28,23.79-25.59,38.86-3.21,9.1-5.19,18.45-5.49,28.12-.08,2.59-.34,2.82-2.99,2.85-2.16.03-4.32-.01-6.48.01-2.35.03-2.45.1-2.45,2.43-.01,10.31,0,20.63,0,30.94,0,.69.14,1.37.2,1.99,3.01.53,216.24.39,218.05-.14.06-.49.19-1.03.19-1.57.01-10.47.02-20.95,0-31.42,0-2.06-.16-2.2-2.17-2.23-2.32-.04-4.64.02-6.96-.02-2.43-.04-2.68-.32-2.8-2.81,0-.08,0-.16,0-.24-.16-7.48-1.52-14.78-3.58-21.94-6.08-21.16-17.97-38.35-35.57-51.56-8.44-6.33-17.66-11.23-27.75-14.4-.96-.3-1.95-.48-3.45-.85Z"/><path class="cls-1" d="m210.95,360.01h-18.33c-.1-6.64-.16-13.17-.01-19.69.14-6.42.59-12.83.71-19.3-2.25,6.36-3.8,12.92-5.6,19.4-1.79,6.46-3.52,12.94-5.31,19.54h-14.69c-3.79-12.84-7.1-25.93-10.8-38.91-.22.04-.43.08-.65.11.32,3.19.71,6.38.93,9.58.22,3.19.31,6.39.37,9.58.06,3.28.01,6.56.01,9.83,0,3.19,0,6.37,0,9.48-1.93.62-14.39.71-16.83.2-.45-1.77-.56-55.63-.08-58.66.7-.05,1.47-.16,2.23-.16,7.28-.01,14.55-.01,21.83,0,2.27,0,2.28.02,2.88,2.28,2.58,9.81,5.16,19.62,7.74,29.43.2.75.43,1.5.82,2.83.44-1.13.72-1.68.87-2.26,2.56-9.82,5.11-19.64,7.67-29.46.14-.54.31-1.08.43-1.62.18-.84.7-1.21,1.54-1.2.48,0,.96,0,1.44,0,6.72,0,13.43,0,20.15,0,.86,0,1.71.08,2.7.12v58.87Z"/><path class="cls-1" d="m369.22,332.09v28.02c-5.8.06-11.34.04-17.02.02v-58.97c.81-.05,1.58-.14,2.35-.15,3.84-.01,7.68.07,11.51-.04,1.68-.05,2.81.51,3.89,1.78,7.06,8.37,14.19,16.68,21.3,25.01.55.65,1.15,1.26,1.95,2.13.55-2.68.22-5.05.28-7.39.06-2.32.01-4.64.01-6.95v-14.03c1.96-.63,14.74-.7,17.2-.13v58.56c-.75.07-1.43.18-2.12.18-4.08.02-8.16-.04-12.23.03-1.41.02-2.36-.44-3.28-1.51-7.02-8.2-14.1-16.34-21.16-24.5-.67-.77-1.36-1.52-2.04-2.29-.22.07-.43.14-.65.21Z"/><path class="cls-1" d="m650.42,360.15c-3.18,0-6.29,0-9.4,0-1.6,0-3.2-.08-4.8.02-1.43.09-2.36-.48-3.27-1.55-7.07-8.25-14.2-16.46-21.32-24.68-.61-.71-1.25-1.38-2.14-2.37-.67,2.65-.3,4.94-.36,7.19-.07,2.4-.02,4.8-.02,7.19v14.01h-16.71c-.53-1.67-.72-55.19-.18-58.83.73-.04,1.5-.13,2.28-.13,3.84-.01,7.68.08,11.51-.04,1.7-.05,2.81.56,3.87,1.82,7.07,8.36,14.19,16.68,21.3,25.01.55.64,1.15,1.24,2.17,1.72v-28.02c1.98-.58,13.74-.72,16.94-.29.07.06.13.12.18.17.05.06.13.12.14.19.06.47.15.95.15,1.42,0,18.71-.01,37.41-.03,56.12,0,.22-.13.45-.32,1.03Z"/><path class="cls-1" d="m517.38,330.55c.04-4.69.67-9.28,2.37-13.65,3.01-7.74,8.64-12.75,16.55-15.08,8.72-2.57,17.53-2.57,26.23.06,8.94,2.7,14.75,8.73,17.29,17.7,2.07,7.3,2.06,14.71-.01,22.01-2.69,9.49-9.05,15.42-18.48,18.02-7.61,2.1-15.32,2.16-22.99.26-11.63-2.88-18.59-10.56-20.34-22.41-.34-2.29-.42-4.61-.62-6.91Zm19.37-.1c0,1.52-.07,3.04.01,4.55.37,7.27,4.7,11.82,11.9,12.15,6.75.31,11.47-3.15,12.8-9.44.92-4.36.8-8.76.25-13.11-.51-4.06-2.39-7.44-6.28-9.33-2.61-1.27-5.39-1.38-8.2-1.09-4.32.44-7.42,2.62-9.24,6.62-1.41,3.1-1.32,6.37-1.24,9.65Z"/><path class="cls-1" d="m131.09,330.49c-.24,4.87-.87,9.59-2.68,14.11-2.89,7.21-8.18,12-15.45,14.38-9.54,3.12-19.19,3.14-28.69-.27-8.47-3.04-13.76-9.15-15.95-17.79-1.83-7.24-1.82-14.58.32-21.78,2.48-8.39,7.87-14.18,16.21-16.94,9.3-3.08,18.73-3.08,28.03-.06,9.31,3.02,14.85,9.66,16.96,19.11.67,3.02.85,6.15,1.25,9.24Zm-19.25.15c-.08,0-.16,0-.23-.01,0-1.52.1-3.04-.02-4.55-.38-4.62-2.04-8.53-6.44-10.77-2.2-1.12-4.58-1.27-7-1.22-7.14.13-11.13,5.01-11.58,11.3-.23,3.25-.2,6.54-.03,9.8.37,7.27,4.57,11.6,11.75,11.96,7.09.35,11.86-3.53,12.94-9.85.37-2.19.42-4.44.61-6.66Z"/><path class="cls-1" d="m682.33,315.04v8.35h27.29v13.42h-27.28v9.34h32.41c.51,4.72.2,9.14.23,13.48-1.87.61-47.63.8-51.15.29-.48-1.77-.58-56.02-.09-58.75h50.46c.33,4.53.15,8.96.11,13.69-1.03.06-1.95.17-2.86.17-8.8.01-17.59,0-26.39,0-.86,0-1.72,0-2.73,0Z"/><path class="cls-1" d="m344.45,360.01h-19.61c-.87-2.68-1.75-5.39-2.65-8.15-.76-.06-1.39-.16-2.01-.16-5.6-.01-11.19-.02-16.79,0-2.05,0-2.08.02-2.71,1.92-.7,2.11-1.34,4.25-2,6.36h-18.98c.28-.87.47-1.54.71-2.19,6.65-18.23,13.31-36.46,19.97-54.69.76-2.08.78-2.09,2.88-2.09,5.92-.01,11.83-.01,17.75,0,2.05,0,2.07.02,2.76,1.91,6.71,18.38,13.41,36.76,20.11,55.15.19.51.32,1.05.59,1.94Zm-26.6-21.4c.02-2.17-4.91-19.04-6.22-21.07-1.2,2.35-1.58,4.78-2.32,7.07-.73,2.28-1.4,4.57-2.02,6.88-.63,2.32-1.65,4.57-1.82,7.13h12.37Z"/><path class="cls-1" d="m58.94,325.07h-17.54c-.25-1.36-.41-2.62-.73-3.84-1.05-4.12-4.12-6.71-8.35-7.06-1.03-.09-2.08-.08-3.11-.01-4.48.29-7.62,2.54-8.82,6.84-1.71,6.18-1.71,12.53-.1,18.71,1.34,5.13,5.32,7.67,10.63,7.51.88-.03,1.75-.16,2.62-.31,4.58-.81,7.37-3.67,8.1-8.27.1-.62.15-1.26.25-2.16,5.58-.29,11.13-.07,16.85-.14.09.76.24,1.36.23,1.96-.17,9.83-5.48,17.55-14.91,20.76-9.29,3.16-18.72,3.02-27.96-.4-6.66-2.47-11.34-7.15-13.66-13.89-3.23-9.37-3.27-18.88-.06-28.24,2.75-8,8.58-12.95,16.71-15.08,7.39-1.94,14.88-2.13,22.28-.08,10.61,2.94,16.8,10.39,17.56,21.1.06.78,0,1.58,0,2.61Z"/><path class="cls-1" d="m241.36,340.93v19.04h-18.41c-.49-1.78-.62-55.78-.12-58.82.73-.04,1.5-.13,2.28-.13,9.75,0,19.5-.03,29.24,0,3.28.01,6.54.35,9.57,1.78,5.62,2.65,8.94,7.19,10.08,13.17,1.04,5.44.7,10.84-2.15,15.81-3.03,5.28-7.6,8.38-13.69,8.82-4.53.32-9.1.24-13.65.32-.94.02-1.88,0-3.16,0Zm.12-13.87c3.32,0,6.5.2,9.63-.06,2.36-.2,3.87-1.81,4.14-4.25.13-1.16.16-2.38-.03-3.53-.41-2.52-1.67-3.82-4.22-4.15-2.12-.28-4.28-.23-6.42-.27-1-.02-2,.09-3.09.15v12.12Z"/><path class="cls-1" d="m460.35,359.98h-18.49c-.05-1.01-.13-1.86-.14-2.71-.01-5.75-.06-11.5.02-17.26.03-1.92-.44-3.54-1.49-5.16-6.82-10.43-13.57-20.9-20.34-31.36-.42-.64-.82-1.3-1.43-2.27,1.08-.09,1.76-.2,2.44-.2,5.59-.01,11.19.07,16.78-.05,1.72-.04,2.57.64,3.35,2.04,2.92,5.23,5.94,10.4,8.94,15.58.39.67.85,1.3,1.49,2.28.6-.87,1.06-1.47,1.44-2.11,3.04-5.25,6.11-10.49,9.06-15.79.8-1.43,1.72-2.02,3.4-1.99,5.27.11,10.55.03,15.82.05.61,0,1.22.1,2.19.18-.53.91-.9,1.58-1.3,2.22-6.79,10.64-13.57,21.28-20.4,31.89-.86,1.34-1.25,2.67-1.23,4.26.06,5.91.03,11.82.02,17.74,0,.85-.08,1.71-.12,2.68Z"/></svg>