<svg id="prefix__Layer_1" xmlns="http://www.w3.org/2000/svg" viewBox="0 0 180 180"><defs><style>.prefix__cls-1,.prefix__cls-2{stroke-width:0}.prefix__cls-2{fill:#31ade3}</style></defs><path class="prefix__cls-1" d="M94.73 10.17H27.76v74.14h8.15V18.32h58.82v-8.15z"/><path class="prefix__cls-2" d="M35.91 46.23h39.93l6.01-8.16H35.91v8.16z"/><path class="prefix__cls-1" d="M88.83 112.37c-18.57 0-33.69-15.12-33.69-33.69s15.11-33.69 33.69-33.69c6.75 0 13.26 1.99 18.83 5.75l4.57-6.76c-6.92-4.68-15.01-7.15-23.4-7.15-23.07 0-41.84 18.77-41.84 41.84s18.77 41.85 41.84 41.85c3.17 0 6.29-.39 9.34-1.09V111c-3.01.87-6.15 1.37-9.34 1.37z"/><path class="prefix__cls-2" d="M113.65 101.45c-4.21 4.58-9.6 7.84-15.48 9.55v8.43c8.19-1.88 15.73-6.18 21.49-12.46l-6.01-5.51z"/><path class="prefix__cls-1" d="M152.68 170.17H94.73V93.49h8.16v68.52h49.79v8.16z"/></svg>