<svg version="1.1" id="prefix__Layer_1" xmlns="http://www.w3.org/2000/svg" x="0" y="0" viewBox="0 0 91 24" xml:space="preserve"><style>.prefix__st1{fill:#2053a0}</style><path d="M15.6 19.6l-2.4-1.8v-3.4l-.8 2-3.6-2.1-.4 4.7-5.4.6-2.9-1.5V.1h6.3l2.9 1.5.9 2.6L12.8.1h6.3L22 1.6l-.7 15.7h65.2l-1.3-.6c-.6-.3-.8-.7-.8-1.4 0-.9.9-1.7 1.9-1.7.5 0 .9.2 1.2.3.1.1.2.1.4.2.6.3 1.4.7 2.2 1.3.5.4.6.9.6 1.2 0 1.4-1.1 2.6-2.4 2.6l-67.2.4-2.9-1.5V2h-2.3l-3.4 6.4-2.9-1.5-3-4.9H3.4l-.1 15.3h2.1v-10l2.8 1.4 2.1 3.9 3.5-5.2 2.5 1.2v10.9h-.7z" fill="#f1d644"/><path class="prefix__st1" d="M19.1.2l2.8 1.4-.7 15.5v.2h65.7l-.7-.3-.9-.4c-.5-.3-.8-.6-.8-1.3 0-.9.8-1.6 1.8-1.6.5 0 .8.2 1.1.3.1.1.2.1.4.2.6.3 1.4.7 2.1 1.3.5.4.6.8.6 1.1 0 1.4-1 2.5-2.3 2.5l-67.1.4-2.8-1.5V1.9H15.9l-.1.1-3.3 6.2-2.8-1.4-3-4.8v-.1H3.4v.2l-.1 15v.2H5.6V7.5l2.6 1.3 2.1 3.8.2.3.2-.3 3.4-5 2.4 1.2v10.8h-.7l-2.3-1.7V14l-.4 1-.6 1.4-3.4-1.9-.3-.2v.3L8.3 19l-5.3.5L.2 18V.2h6.2l2.9 1.4.8 2.4.1.4.2-.4L12.8.1h6.3m0-.1h-6.4l-2.5 4-.8-2.5-3-1.5H0v18.2l3 1.5 5.5-.5.3-4.7 3.6 2.1.6-1.6v3l2.5 1.8h1V8.6l-2.7-1.3-3.5 5.1-2-3.8-3-1.5v10H3.4l.1-15h3l3 4.9 3 1.5L16 2.1h2.1v16.1l3 1.5 67.2-.4c1.4 0 2.5-1.3 2.5-2.7 0-.3-.1-.8-.6-1.3-.9-.8-2.2-1.3-2.6-1.5-.4-.2-.7-.4-1.2-.4-1.1 0-2 .8-2 1.8 0 .7.2 1.2.9 1.5l.9.4H21.5l.7-15.7L19.1 0z"/><path class="prefix__st1" d="M26.1 1.9h1.7l2.8 4.3 2.8-4.3H35V11h-1.6V4.5l-2.9 4.3h-.1l-2.8-4.3V11H26V1.9zM40.9 1.8h1.5l4 9.2h-1.7l-.9-2.2h-4.3l-1 2.2h-1.6l4-9.2zm2.3 5.6l-1.6-3.6L40 7.4h3.2zM48.3 1.9h4.1c.6 0 1.1.1 1.5.2s.8.4 1.1.7c.2.3.4.5.6.9.1.3.2.7.2 1.1 0 .7-.2 1.3-.6 1.8-.4.5-.9.8-1.6 1L56 11h-1.9l-2.2-3.2h-2V11h-1.6V1.9zm3.9 4.5c.6 0 1-.1 1.4-.4.3-.3.5-.6.5-1.1 0-.5-.2-.9-.5-1.1-.3-.3-.8-.4-1.4-.4h-2.3v3.1h2.3zM58.1 1.9h1.6V11h-1.6V1.9zM66.8 11.2c-.7 0-1.3-.1-1.9-.4s-1.1-.6-1.5-1-.7-.9-1-1.5c-.2-.6-.4-1.2-.4-1.8 0-.6.1-1.2.4-1.8.2-.6.6-1.1 1-1.5.4-.4.9-.8 1.5-1 .6-.3 1.2-.4 1.9-.4s1.3.1 1.9.4c.6.2 1.1.6 1.5 1s.7.9 1 1.5c.2.6.4 1.2.4 1.8 0 .6-.1 1.2-.4 1.8-.2.6-.6 1.1-1 1.5-.4.4-.9.8-1.5 1-.6.2-1.2.4-1.9.4zm0-1.5c.5 0 .9-.1 1.2-.3.4-.2.7-.4 1-.7.3-.3.5-.6.6-1 .2-.4.2-.8.2-1.3 0-.4-.1-.9-.2-1.3-.2-.4-.4-.7-.6-1-.3-.3-.6-.5-1-.7-.4-.2-.8-.3-1.2-.3-.5 0-.9.1-1.2.3-.4.2-.7.4-1 .7s-.5.6-.6 1c-.2.4-.2.8-.2 1.3 0 .4.1.9.2 1.3.2.4.4.7.6 1 .3.3.6.5 1 .7.4.2.8.3 1.2.3zM73.8 1.9h1.5l4.9 6.3V1.9h1.6V11h-1.3l-5-6.5V11h-1.6V1.9z"/><g><path class="prefix__st1" d="M25.8 12.2h.8l1.3 2 1.3-2h.8v4.3h-.8v-3.1l-1.4 2-1.3-2v3.1h-.7v-4.3zM32.7 12.2h.7l1.9 4.3h-.8l-.4-1h-2l-.4 1h-.8l1.8-4.3zm1 2.6l-.7-1.7-.7 1.7h1.4zM36 12.2h.7l2.3 3v-3h.7v4.3h-.6l-2.4-3.1v3.1H36v-4.3zM42.6 16.6c-.3 0-.5 0-.8-.1s-.4-.2-.6-.4c-.2-.2-.3-.4-.4-.6-.1-.2-.1-.5-.1-.8v-2.5h.8v2.4c0 .4.1.7.3.9s.5.3.8.3c.3 0 .6-.1.8-.3.2-.2.3-.5.3-.9v-2.5h.8v2.4c0 .3 0 .6-.1.8-.1.2-.2.4-.4.6-.2.2-.4.3-.6.4s-.5.3-.8.3zM45.5 12.2h3.2v.7h-2.4v1.2h2.2v.7h-2.2v1.8h-.8v-4.4zM51.1 12.2h.7l1.9 4.3h-.8l-.4-1h-2l-.4 1h-.8l1.8-4.3zm1 2.6l-.7-1.7-.7 1.7h1.4zM56.4 16.6c-.3 0-.6-.1-.9-.2-.3-.1-.5-.3-.7-.5-.2-.2-.3-.4-.5-.7-.1-.3-.2-.6-.2-.9 0-.3.1-.6.2-.9.1-.3.3-.5.5-.7.2-.2.4-.4.7-.5.3-.1.6-.2.9-.2h.5c.1 0 .3.1.4.1.1.1.3.1.4.2l.3.3-.5.6c-.2-.2-.4-.3-.5-.4-.2-.1-.4-.1-.7-.1-.2 0-.4 0-.6.1-.2.1-.3.2-.4.3s-.2.3-.3.5v.7c0 .2 0 .4.1.6.1.2.2.3.3.5.1.1.3.2.5.3.2.1.4.1.6.1.3 0 .5 0 .7-.1s.4-.2.6-.4l.5.5-.3.3c-.1.1-.3.2-.4.2-.1.1-.3.1-.5.2-.3.1-.5.1-.7.1zM60 12.9h-1.4v-.7h3.5v.7h-1.4v3.6H60v-3.6zM64.7 16.6c-.3 0-.5 0-.8-.1s-.4-.2-.6-.4c-.2-.2-.3-.4-.4-.6-.1-.2-.1-.5-.1-.8v-2.5h.8v2.4c0 .4.1.7.3.9.2.2.5.3.8.3.3 0 .6-.1.8-.3.2-.2.3-.5.3-.9v-2.5h.8v2.4c0 .3 0 .6-.1.8-.1.2-.2.4-.4.6s-.4.3-.6.4-.5.3-.8.3zM67.6 12.2h1.9c.3 0 .5 0 .7.1s.4.2.5.3c.1.1.2.3.3.4.1.2.1.3.1.5 0 .4-.1.6-.3.9-.2.2-.4.4-.7.5l1.2 1.6h-.9L69.3 15h-.9v1.5h-.8v-4.3zm1.8 2.1c.3 0 .5-.1.6-.2s.2-.3.2-.5-.1-.4-.2-.5c-.2-.1-.4-.2-.7-.2h-1.1v1.4h1.2zM72.1 12.2h.8v4.3h-.8v-4.3zM74 12.2h.7l2.3 3v-3h.7v4.3h-.6l-2.4-3.1v3.1H74v-4.3zM80.9 16.6c-.3 0-.6-.1-.9-.2-.3-.1-.5-.3-.7-.5-.2-.2-.3-.4-.5-.7-.1-.3-.2-.6-.2-.9 0-.3.1-.6.2-.9.1-.3.3-.5.5-.7.2-.2.4-.4.7-.5.3-.1.6-.2.9-.2h.5c.2 0 .3.1.4.1.1 0 .3.1.4.2.1.1.2.2.3.2l-.5.8c-.1-.1-.2-.1-.3-.2-.1-.1-.2-.1-.3-.1-.1 0-.2-.1-.3-.1h-.4c-.2 0-.4 0-.6.1-.2.1-.3.2-.4.3s-.2.3-.3.5c-.1.2-.1.4-.1.6 0 .2 0 .4.1.6.1.2.2.4.3.5s.3.2.5.3c.2.1.4.1.6.1.2 0 .4 0 .6-.1.2-.1.3-.1.5-.2v-.8h-1.1v-.7h1.8v1.8c-.1.1-.2.2-.4.3-.1.1-.3.2-.4.2s-.3.1-.5.1c-.1.1-.2.1-.4.1z"/></g><g><path class="prefix__st1" d="M61.9 23.9c-.2 0-.4 0-.6-.1l-.6-.3.3-.4c.1.1.3.2.4.3s.3.1.5.1.3 0 .4-.1c.1-.1.1-.2.1-.3V23l-.1-.1s-.1-.1-.2-.1-.2-.1-.3-.1c-.2 0-.3-.1-.4-.1s-.2-.1-.3-.2l-.2-.2c0-.1-.1-.2-.1-.3 0-.1 0-.2.1-.3 0-.1.1-.2.2-.3.1-.1.2-.1.3-.2.1 0 .3-.1.4-.1.2 0 .4 0 .6.1.2.1.3.2.5.3l-.3.4c-.1-.1-.3-.2-.4-.2-.1 0-.3-.1-.4-.1-.1 0-.3 0-.3.1-.1.1-.1.1-.1.2v.1l.1.1c.1 0 .1.1.2.1s.2.1.3.1c.2 0 .3.1.4.1s.2.1.3.2l.2.2c.1.1.1.2.1.3 0 .1 0 .3-.1.4s-.1.2-.2.3c-.1.1-.2.1-.3.2s-.4 0-.5 0zM63.4 20.9h.6v.5h-.5v-.5zm.1.8h.5v2.2h-.5v-2.2zM64.6 21.7h.5v.3l.1-.1.1-.1c.1 0 .1-.1.2-.1h.2c.2 0 .4.1.6.2.1.2.2.4.2.6v1.4H66v-1.2c0-.2 0-.3-.1-.4-.1-.1-.2-.1-.3-.1-.1 0-.3 0-.4.1-.1.1-.1.2-.1.4v1.2h-.5v-2.2zM68.2 24c-.2 0-.3 0-.4-.1s-.3-.1-.4-.2c-.1-.1-.2-.2-.2-.4-.1-.2-.2-.3-.2-.5s0-.3.1-.4c.1-.1.1-.3.2-.4.1-.1.2-.2.4-.2.1-.1.3-.1.5-.1h.3c.1 0 .2 0 .2.1.1 0 .1.1.2.1s.1.1.2.2l-.3.3c-.1-.1-.2-.1-.2-.2-.1-.1-.2-.1-.3-.1-.1 0-.2 0-.3.1-.1 0-.1.1-.2.1-.1.1-.1.1-.1.2v.6c0 .1.1.2.1.2.1.1.1.1.2.1s.2.1.3.1c.1 0 .2 0 .3-.1.1 0 .2-.1.3-.2l.3.3c-.1.1-.2.2-.4.3-.3.1-.4.2-.6.2zM70.4 24c-.2 0-.3 0-.4-.1-.1-.1-.3-.1-.4-.2-.1-.1-.2-.2-.2-.4-.1-.1-.1-.3-.1-.5s0-.3.1-.4c.1-.1.1-.3.2-.4s.2-.2.3-.2.3-.1.4-.1c.2 0 .3 0 .5.1.1.1.2.1.3.3.1.1.2.2.2.4 0 .1.1.3.1.4v.2h-1.6c0 .2.1.3.2.4s.3.1.4.1c.1 0 .2 0 .3-.1.1 0 .2-.1.3-.2l.3.3c-.1.1-.2.2-.4.3-.1 0-.3.1-.5.1zm.5-1.3c0-.1 0-.2-.1-.2 0-.1-.1-.1-.1-.2s-.1-.1-.2-.1h-.2c-.2 0-.3.1-.4.2-.1.1-.2.2-.2.4h1.2zM73.6 21.5l-.5.1-.1-.4.8-.2h.3v2.9h-.5v-2.4zM75.7 23.5c.1 0 .2 0 .3-.1s.2-.1.2-.2.1-.2.1-.3v-.3c-.1.1-.2.2-.3.2s-.2.1-.4.1-.3 0-.4-.1c-.1 0-.2-.1-.3-.2s-.2-.2-.2-.3c0-.1-.1-.2-.1-.4 0-.1 0-.3.1-.4s.1-.2.2-.3.2-.2.3-.2c.1-.1.3-.1.4-.1.2 0 .3 0 .5.1.1.1.2.1.3.2.1.1.2.2.3.4.1.2.1.4.1.7 0 .2 0 .4-.1.6-.1.2-.1.4-.2.5-.1.1-.2.2-.4.3-.2.1-.3.1-.5.1s-.4 0-.5-.1c-.1-.1-.3-.1-.4-.2l.3-.4c.1.1.2.2.3.2s.3.2.4.2zm.1-1h.2c.1 0 .1-.1.2-.1s.1-.1.1-.2V22c0-.2-.1-.3-.2-.4-.1-.1-.3-.2-.4-.2h-.2c-.1 0-.1.1-.2.1 0 0-.1.1-.1.2v.2c0 .2.1.3.2.4s.2.2.4.2zM78.9 23.3h-1.4l-.1-.4L79 21h.4v1.8h.4v.4h-.4v.6h-.5v-.5zm0-.5v-1.1l-.9 1.1h.9zM81.3 24c-.2 0-.3 0-.5-.1-.1-.1-.2-.1-.3-.2-.1-.1-.1-.1-.1-.2s-.1-.1-.1-.2-.1-.2-.1-.3v-.4c0-.2 0-.4.1-.6.1-.2.1-.4.2-.5.1-.1.2-.3.4-.3.1-.2.3-.2.5-.2s.3 0 .5.1c.1.1.3.1.4.2l-.3.4c-.1-.1-.2-.1-.3-.2s-.2-.1-.3-.1c-.1 0-.2 0-.3.1-.1.1-.2.1-.2.2s-.1.2-.1.3v.3c.1-.1.2-.2.3-.2.1-.1.2-.1.4-.1.1 0 .3 0 .4.1s.2.1.3.2c.1.1.2.2.2.3.1.1.1.2.1.4 0 .1 0 .3-.1.4-.1.1-.1.2-.2.3-.1.1-.2.2-.3.2s-.4.1-.6.1zm0-.5c.2 0 .3 0 .4-.1.1-.1.2-.2.2-.4 0-.1-.1-.3-.2-.4s-.2-.1-.4-.1h-.2s-.1.1-.2.1-.1.1-.1.2v.2c0 .1.1.3.2.4 0 .1.2.1.3.1z"/></g><g><path class="prefix__st1" d="M88.5 19.7H21.1V2.5h-4.9l-3.7 6-3.7-6H4v16.2h4.3v-10l4.1 6 4.1-6v11.1h-1V12l-3.1 4.6L9.3 12v7.8H3V1.5h6.4l3.2 5.1 3.2-5.1h6.4v17.2h66.4c.9 0 1.5-.7 1.5-1.6 0-1.4-.8-1.4-1.1-1.4-.6 0-1 .4-1 .8 0 .7.3.7.5.7s.3 0 .3-.1l1 .1c0 .3-.4 1-1.3 1-.7 0-1.5-.4-1.5-1.7 0-1 .9-1.8 2-1.8 1.3 0 2.1.9 2.1 2.4-.1 1.4-1.2 2.6-2.6 2.6z"/></g></svg>