<svg version="1.1" id="prefix__Layer_1" xmlns="http://www.w3.org/2000/svg" x="0" y="0" viewBox="0 0 399.7 71.3" xml:space="preserve"><style>.prefix__st0{fill:var(--trident)}.prefix__st1{fill:#c52126}</style><path class="prefix__st0" d="M184.9 57.2h-24.4l20-33.6h24.4zM326.7 23.6l-11.4 19-.1-19h-23.5l-20 33.6h24.5l9.9-16.6.5 16.6h8.8l20-33.6zM180.8 15.9H80.4l-3.1 5.2H108L86.5 57.2H111l21.5-36.1h45.2zM399.7 23.6h-61.2l-2.7 4.5h15.8l-17.3 29.1h21.9l17.3-29.1H397zM286.7 27.1l2.1-3.5h-35.6l-20 33.6h35.1l2.9-4.9h-11.6l6.5-10.9h11.8l2.9-4.9H269l5.6-9.4z"/><path class="prefix__st0" d="M169.2 23.6H134l-20 33.6h23.1l8.8-13 6.9 13h6.7l-6.6-14h8.4c1.9 0 4.3-.8 6.5-4.6 0 0 4-6.9 5.3-9.1 1.2-2.2 1.9-5.9-3.9-5.9zm-9 5.8s-4.7 7.8-5.2 8.7c-.6 1-1.3 1.1-2.1 1.1H149l6.9-11.5h2.8c1.3 0 2.2.7 1.5 1.7zM242.9 23.6H208l-20 33.6h34.7c2.8 0 7.6-.5 11-6.2 3.4-5.8 10.6-17.4 12.7-21 1.9-3.6.7-6.4-3.5-6.4zm-9.5 6.1c-1 1.7-10.9 18.3-11.7 19.7-.8 1.4-1.6 2.3-2.9 2.3h-3.1l14.6-24.6h2.2c1.4 0 1.8.9.9 2.6zM375.9 64.2l1.5-2.6H84.2l-1.5 2.6z"/><g><path class="prefix__st1" d="M47.2 0h-19l-3.1 4.4h7L26 13.1h7.4l6.1-8.7h4.6zM18.8 1L5.4 14.4l.9 5.3 5-4.9 1.8 10.4 5.3-5.2-1.9-10.4 3.3-3.3zM0 22.2v19l4.4 3v-7l8.7 6.1v-7.4l-8.7-6v-4.7zM1 50.5l13.4 13.4 5.3-.9-4.9-5 10.4-1.8L20 51 9.6 52.8l-3.3-3.3zM21.4 71.3h19l3-4.4h-7l6.1-8.7h-7.4l-6 8.7h-4.7zM50.8 68.8l13.4-13.4-1-5.3-4.9 5-1.9-10.5-5.2 5.2 1.9 10.5-3.3 3.3zM71.8 47V28l-4.4-3.1v7l-8.7-6.1v7.4l8.7 6v4.7zM69.1 17.5L55.7 4.1l-5.3.9 4.9 5-10.4 1.8 5.2 5.2 10.4-1.8 3.3 3.3z"/></g></svg>