<svg version="1.1" id="prefix__Layer_1" xmlns="http://www.w3.org/2000/svg" xmlns:xlink="http://www.w3.org/1999/xlink" x="0" y="0" viewBox="0 0 209.5 48.5" xml:space="preserve"><style></style><defs><path id="prefix__SVGID_1_" d="M0 0h209.5v48.5H0z"/></defs><clipPath id="prefix__SVGID_00000062884292597124393500000005749641448114312873_"><use xlink:href="#prefix__SVGID_1_" overflow="visible"/></clipPath><path d="M69.9 7.2V24c0 1.5-.3 2.5-.9 3.1-.6.6-1.6.9-3.2 1-1.6 0-2.6-.3-3.2-1-.6-.6-.9-1.6-.9-3.1V7.2h-6.3v16.1c0 2.4.4 4.7 2 6.3 1.6 1.7 4.3 2.6 8.4 2.6 4.1 0 6.8-1 8.4-2.6 1.6-1.7 2-3.9 2-6.3V7.2h-6.3zM97.4 28.7c-.4 0-.5-.2-.7-.4-.1-.3-.2-.7-.2-.8V17c0-1.5-.3-2.8-1.1-3.7-.8-.9-1.9-1.2-3.4-1.2H79.9v19.8h5.6V17.2c0-.3-.1-1.2 1-1.2h3.2c1.2 0 1.3 1.2 1.3 1.7v11.5c0 1.3.6 1.9 1.4 2.3.8.5 2.5.5 2.5.5h3.4v-3.2c-.1-.1-.8-.1-.9-.1M101.3 12.5v19.4h5.5V12.1h-5.5zM146.3 24.4h11V16c0-2.9-2.8-3.9-5.2-3.9h-6.3c-3.4 0-5.3 2.2-5.3 3.9v8.7c0 2.1.4 4 1.7 5.4 1.8 2 6.8 1.7 6.8 1.7h8.2V28H149c-1.5 0-2-.4-2.4-1-.3-.6-.4-.9-.4-1.8v-.8zm2.8-8.6c1.1 0 1.8.2 2.2.6.4.4.6 1 .6 2.1v1.9h-5.6v-1.9c0-1 .2-1.7.6-2.1.5-.4 1.1-.6 2.2-.6M168.6 12.1V6.7L163.1 9v3.1h-3.5v3.8h3.5v16h5.5v-16h4.2v-3.8zM195.6 8.6v23.3h5.5V6.3zM137.6 28.7c-.4 0-.5-.2-.7-.4-.1-.3-.2-.9-.2-.9V12.3c0-1.5-.3-2.8-1.1-3.7-.8-.9-1.9-1.2-3.4-1.2h-21.1V32h5.6V12.4c0-.3-.1-1.2 1-1.2h2.2c1.2 0 1.3 1.2 1.3 1.7v19h5.6V12.4c0-.3-.1-1.2 1-1.2h2.2c1.2 0 1.3 1.2 1.3 1.7v16.2c0 1.3.6 1.9 1.4 2.3.8.5 2.5.5 2.5.5h3.4v-3.2h-1M59.4 47c-.9 0-2.3-.2-2.3-.2v-1s1.4.2 2.3.2c.6 0 1.3-.4 1.3-1 0-1.5-4-2-4-4.1 0-1.1 1-1.9 2.6-1.9.9 0 2.2.3 2.2.3v1s-1.4-.3-2.2-.3c-.6 0-1.2.4-1.2.9 0 1.5 4 2 4 4.2.1 1.1-1 1.9-2.7 1.9M68.8 47c-2.2 0-2.6-1.1-2.6-2.6v-5.2h1.4v5.5c0 .9.3 1.4 1.2 1.4s1.2-.5 1.2-1.4v-5.5h1.4v5.2c.1 1.4-.4 2.6-2.6 2.6M77.5 43.6v3.2h-1.4v-7.7h2.4c1.9 0 2.9.8 2.9 2.2 0 1-.5 1.6-1.4 2l1.1 2.5s.1.4.6.4c.1 0 .2-.1.3-.1v.7c-.4.2-.7.3-1.1.3-.3 0-.8-.1-1-.4l-1.2-2.9h-1.2zm.7-3.5h-.7v2.6h.7c1.2 0 1.8-.3 1.8-1.3-.1-1-.6-1.3-1.8-1.3M90.6 40.1h-3.1v2.3h2.3v.9h-2.3v3.6H86v-7.7h4.6zM95.3 39.2h2l2 7.7h-1.4l-.4-1.7h-2.4l-.4 1.7h-1.3l1.9-7.7zm1 .9l-.9 4.1h1.9l-1-4.1zM105.9 47c-2.4 0-2.7-1.4-2.7-2.9v-2.2c0-1.5.3-2.8 2.7-2.8.7 0 1.8.2 1.8.2v1s-1.1-.2-1.8-.2c-1.2 0-1.3.9-1.3 1.6v2.6c0 .7 0 1.8 1.3 1.8.7 0 1.8-.2 1.8-.2v1c0-.2-1.1.1-1.8.1M114.5 47c-2.4 0-2.7-1.4-2.7-2.9v-2.2c0-1.5.3-2.8 2.7-2.8.7 0 1.8.2 1.8.2v1s-1.1-.2-1.8-.2c-1.2 0-1.3.9-1.3 1.6v.7h2.4v1h-2.4v.9c0 .7 0 1.8 1.3 1.8.7 0 1.8-.2 1.8-.2v1c0-.2-1.1.1-1.8.1M131.2 40.1h-3.1v2.3h2.4v.9h-2.4v3.6h-1.4v-7.7h4.5zM135.9 45.9v-5.8h-.8v-.9h2.9v.9h-.7v5.8h.7v1h-2.9v-1zM142.4 39.2h1.4l2.7 4v-4h1.4v7.7h-1.4v-1.5l-2.8-4.2v5.7h-1.3zM153.1 45.9v-5.8h-.8v-.9h2.9v.9h-.7v5.8h.7v1h-2.9v-1zM161.7 47c-.9 0-2.3-.2-2.3-.2v-1s1.4.2 2.3.2c.6 0 1.3-.4 1.3-1 0-1.5-4-2-4-4.1 0-1.1 1-1.9 2.6-1.9.9 0 2.2.3 2.2.3v1s-1.4-.3-2.2-.3c-.6 0-1.2.4-1.2.9 0 1.5 4 2 4 4.2.1 1.1-1 1.9-2.7 1.9M168.7 39.2h1.4v3.2h2.5v-3.2h1.4v7.7h-1.4v-3.6h-2.5v3.6h-1.4zM179.1 45.9v-5.8h-.8v-.9h2.9v.9h-.8v5.8h.8v1h-2.9v-1zM185.5 39.2h1.5l2.7 4v-4h1.3v7.7h-1.3v-1.5l-2.8-4.2v5.7h-1.4zM199.7 46.9v-.4c-.4.3-1 .5-1.6.5-1.9 0-2.5-1.1-2.5-2.5v-2.9c0-1.4.6-2.5 2.7-2.5.9 0 2.3.2 2.3.2v1s-1.5-.2-2.3-.2c-1.3 0-1.3.8-1.3 1.6v2.8c0 .8.1 1.6 1.3 1.6.6 0 1-.2 1.3-.6v-3.1h1.4v4.5h-1.3zM205.3 29.5h-.7v-.4h2v.4h-.7v2.3h-.5v-2.3zm2 .5v1.9h-.5v-2.7h.6l.8 1.2.8-1.2h.5v2.7h-.5V30l-.8 1.2-.9-1.2zM192.1 28.7c-.4 0-.5-.2-.7-.4-.1-.3-.2-.7-.2-.8V17c0-1.5-.3-2.8-1.1-3.7-.8-.9-1.9-1.2-3.4-1.2h-11v3.8h8.3c1.1 0 1.3 1 1.4 1.8h-5.8c-2.4 0-5.2 1-5.2 3.9v6.3c0 2.9 2.8 3.9 5.2 3.9h6.3c.7 0 1.3-.1 1.9-.2.8.2 1.8.2 1.8.2h3.4v-3.2c0 .1-.8.1-.9.1m-9.4-.5c-1.1 0-1.8-.2-2.2-.6-.4-.4-.6-1-.6-2.1v-1.4c0-1.1.2-1.7.6-2.1.4-.4 1.1-.6 2.2-.6h2.8V25.5c0 1-.2 1.7-.6 2.1-.5.4-1.1.6-2.2.6M48.8 0H32.4l-8.1 9.6L16.5 0H0v26.4c0 7.3 2.2 13.1 6.5 16.8 4.3 3.7 10.3 5.3 17.5 5.3 7.4 0 13.6-1.7 18.1-5.4 4.4-3.7 6.8-9.4 6.8-16.6L48.8 0" clip-path="url(#prefix__SVGID_00000062884292597124393500000005749641448114312873_)"/><path d="M14.4 2v25.2c0 7.5 3.6 11.4 9.9 11.4 6.5 0 10.1-3.6 10.1-11.4V2h12.3v24.6c0 13.5-8.5 19.9-22.8 19.9C10.1 46.5 2 40.4 2 26.4V2h12.4" clip-path="url(#prefix__SVGID_00000062884292597124393500000005749641448114312873_)" fill="#ffc425"/><path d="M41.1 8.5V26c0 10.1-6.4 16.6-17 16.6-10.3 0-16.4-6.3-16.4-16.7V8.5L2 2v24.4c0 14 8.1 20.1 21.9 20.1 14.3 0 22.8-6.4 22.8-19.9V2l-5.6 6.5" clip-path="url(#prefix__SVGID_00000062884292597124393500000005749641448114312873_)" fill="#cfd4d8"/></svg>